<?xml version="1.0" encoding="UTF-8"?>
<svg width="41px" height="22px" viewBox="0 0 41 22" version="1.1" xmlns="http://www.w3.org/2000/svg" xmlns:xlink="http://www.w3.org/1999/xlink">
    <!-- Generator: Sketch 43.1 (39012) - http://www.bohemiancoding.com/sketch -->
    <title>icon_level</title>
    <desc>Created with Sketch.</desc>
    <defs>
        <rect id="path-1" x="0" y="0" width="41" height="22" rx="11"></rect>
        <linearGradient x1="130.246007%" y1="0%" x2="14.6904511%" y2="89.9660355%" id="linearGradient-3">
            <stop stop-color="#FFFFFF" stop-opacity="0.623188406" offset="0%"></stop>
            <stop stop-color="#FFFFFF" stop-opacity="0" offset="100%"></stop>
        </linearGradient>
        <path d="M8,7 L9.95445135,7 L10.6666667,13.2443064 L10.699793,13.2443064 L14.0124224,7 L16,7 L11.26294,15.563147 L9.15942029,15.563147 L8,7 Z M17,17 C16.4477153,17 16,16.5522847 16,16 C16,15.4477153 16.4477153,15 17,15 C17.5522847,15 18,15.4477153 18,16 C18,16.5522847 17.5522847,17 17,17 Z" id="path-4"></path>
    </defs>
    <g id="爱豆端" stroke="none" stroke-width="1" fill="none" fill-rule="evenodd">
        <g id="4.2粉丝详情-1" transform="translate(-248.000000, -425.000000)">
            <g id="粉丝" transform="translate(0.000000, 406.000000)">
                <g id="icon_level" transform="translate(248.000000, 19.000000)">
                    <g id="Path-6-+-Path-6-Mask">
                        <mask id="mask-2" fill="white">
                            <use xlink:href="#path-1"></use>
                        </mask>
                        <g id="Mask">
                            <use fill="#FFA600" fill-rule="evenodd" xlink:href="#path-1"></use>
                            <rect stroke="#FFBD00" stroke-width="1" x="0.5" y="0.5" width="40" height="21" rx="10.5"></rect>
                        </g>
                        <polygon id="Path-6" fill="url(#linearGradient-3)" opacity="0.601449275" mask="url(#mask-2)" points="10 27 38.8888889 3 49 26.4285714"></polygon>
                        <polygon id="Path-6" fill="url(#linearGradient-3)" opacity="0.601449275" mask="url(#mask-2)" points="-10 34 25.9694437 14 43 25.8980887"></polygon>
                    </g>
                    <text id="9" font-family="HelveticaNeue-MediumItalic, Helvetica Neue" font-size="18" font-style="italic" font-weight="500" fill="#FFFFFF">
                        <tspan x="23" y="18">9</tspan>
                    </text>
                    <g id="Combined-Shape">
                        <use fill="#FFFFFF" fill-rule="evenodd" xlink:href="#path-4"></use>
                        <path stroke="#FFBD00" stroke-width="1" d="M10.9865625,11.6368314 L10.4512304,6.9433382 L10.400664,6.5 L9.95445135,6.5 L8,6.5 L7.4277395,6.5 L7.50452099,7.06708613 L8.66394128,15.6302331 L8.72255631,16.063147 L9.15942029,16.063147 L11.26294,16.063147 L11.5577506,16.063147 L11.700457,15.8051777 L16.437517,7.24203069 L16.8480021,6.5 L16,6.5 L14.0124224,6.5 L13.711672,6.5 L13.5707281,6.76567941 L10.9865625,11.6368314 Z M17,17.5 C17.8284271,17.5 18.5,16.8284271 18.5,16 C18.5,15.1715729 17.8284271,14.5 17,14.5 C16.1715729,14.5 15.5,15.1715729 15.5,16 C15.5,16.8284271 16.1715729,17.5 17,17.5 Z"></path>
                    </g>
                </g>
            </g>
        </g>
    </g>
</svg>